<?xml version="1.0" encoding="UTF-8" standalone="yes"?><!-- Created with Inkscape (http://www.inkscape.org/) --><svg xmlns="http://www.w3.org/2000/svg" width="133.33" height="133.33" version="1.2" viewBox="0 0 133.33 133.33" baseProfile="tiny-ps"><title>TravelooBIMI</title><path d="m0 66.667v-66.667h133.33v133.33h-133.33zm74.518 50.519c0.11487-0.11487-1.6106-5.8026-3.8344-12.639-2.2238-6.8368-4.5396-14.407-5.1463-16.822-1.5014-5.9766-2.5518-15.383-2.3562-21.098 0.14781-4.3183 0.2728-4.8915 1.4994-6.8755 1.8697-3.0242 4.339-4.7429 8.8226-6.1409 2.1127-0.65869 4.1669-1.3226 4.5651-1.4754 0.62078-0.23822 0.67912-0.03916 0.40958 1.3976-0.41812 2.2288-2.0736 5.5791-2.7567 5.5791-0.30022 0-0.95812 0.52412-1.462 1.1647-1.0007 1.2722-0.93004 2.1174 0.44809 5.3596 1.3997 3.2929 1.1991 3.3089 15.071-1.1991 13.827-4.4933 13.833-4.4968 12.916-7.7241-1.6201-5.7045-1.7351-5.738-10.24-2.9807l-6.6511 2.1562 0.24707-2.7216c0.13589-1.4969 0.31943-2.96 0.40788-3.2513 0.23581-0.7767 13.71-5.0259 15.938-5.0259 2.561 0 5.5326 1.0748 7.5351 2.7255 0.91237 0.75205 3.2512 3.7739 5.1973 6.7153 1.9462 2.9414 3.5385 5.112 3.5385 4.8237 0-1.3204-1.51-7.6969-2.5359-10.709-4.7174-13.85-15.843-25.598-29.509-31.159-19.535-7.9497-41.672-3.4789-56.577 11.426-7.8181 7.8181-12.932 17.785-14.691 28.634-0.70752 4.3627-0.93942 12.877-0.35073 12.877 0.18458 0 0.81426-1.25 1.3993-2.7778 1.2696-3.3156 4.3893-9.6622 6.7206-13.672 1.9023-3.2721 4.1653-4.8832 6.8593-4.8832 0.90103 0 7.0858 1.7994 13.744 3.9987 12.739 4.208 13.802 4.7564 14.913 7.6969 0.53015 1.4032 0.61222 3.9402 0.19494 6.0266-0.24162 1.2081-0.45858 1.3854-1.6667 1.3625-0.76389-0.01453-2.5889-0.46535-4.0556-1.0018-2.4862-0.9094-2.6667-1.0699-2.6667-2.3714 0-2.3732-1.1713-3.0958-9.3679-5.7793-6.8917-2.2563-7.8087-2.4574-8.9848-1.9702-1.4494 0.60035-1.9051 1.3873-2.7681 4.7797-0.93641 3.6812-0.44664 4.1114 7.6705 6.7368 3.731 1.2067 8.3988 3.0209 10.373 4.0315 1.9741 1.0106 4.9441 2.1209 6.5999 2.4673 1.6558 0.34644 3.1008 0.72012 3.2111 0.83039 0.29573 0.29573-1.4359 6.9516-3.2138 12.353-1.9465 5.9137-3.4887 8.3704-6.4979 10.351-4.7166 3.1045-8.4172 3.1722-16.91 0.30924-4.1358-1.3942-5.1377-1.6048-4.8186-1.013 0.8315 1.542 2.5881 2.616 5.9554 3.6413 3.3195 1.0107 3.4588 1.1063 3.1943 2.1924-0.15211 0.62462-0.37399 1.539-0.49307 2.032-0.17438 0.72198 0.47379 1.3517 3.3321 3.2374 9.6218 6.3477 19.38 9.1191 30.873 8.7682 3.1407-0.0959 5.8043-0.26836 5.9192-0.38323zm-20.219-43.668c-4.2273-0.92544-8.7379-3.4767-12.083-6.8343-2.6918-2.7016-5.8952-7.572-4.9803-7.572 0.22143 0 1.4931 0.37518 2.8259 0.83374 1.7767 0.61127 3.1358 1.5462 5.0934 3.5038 3.9744 3.9744 9.3666 6.3291 14.494 6.3291h2.1288v4.4444l-2.3333-0.04463c-1.2833-0.02455-3.5985-0.32159-5.1447-0.6601zm21.583-8.7448c-0.64022-1.879-0.63365-1.9092 0.82883-3.8143 3.0829-4.0159 4.5255-11.271 3.2935-16.564-1.673-7.1878-7.7365-13.4-14.901-15.266-11.887-3.096-23.859 4.8985-25.631 17.115-0.26424 1.8219-0.51998 3.3619-0.56831 3.4223-0.04833 0.0604-1.026-0.20984-2.1726-0.60052l-2.0847-0.71033 0.29205-2.2884c1.3049-10.225 9.2683-19.011 19.396-21.399 10.693-2.5213 22.472 2.8426 27.577 12.559 2.1127 4.0205 2.9759 7.4676 2.9759 11.885 0 5.7993-1.6981 10.758-5.2823 15.426-2.0328 2.6471-2.8841 2.7011-3.724 0.23607zm7.1974 50.367c0.54109-0.34242 0.48722-0.8868-0.36217-3.6599-2.0052-6.5465-1.9964-6.4914-1.2217-7.6739 0.59378-0.90622 3.0504-1.845 14.609-5.5829 7.6422-2.4714 14.135-4.5726 14.429-4.6693 0.48885-0.16104 3.3397-4.7173 3.101-4.956-0.057-0.05702-7.1982 2.1935-15.869 5.0011-9.7792 3.1664-16.143 5.0107-16.76 4.857-1.5948-0.39741-2.2464-1.9477-2.7529-6.5495-0.63566-5.7759-0.60352-10.228 0.08058-11.161 0.68536-0.93506 29.104-10.167 30.221-9.818 0.82826 0.25906 3.6896 4.1164 6.1326 8.2672 0.81828 1.3903 1.6311 2.4393 1.8063 2.331 0.17518-0.10827 0.45381-0.99769 0.61918-1.9765 0.33819-2.0017-0.32141-3.3929-3.937-8.3036-1.5856-2.1535-2.4151-2.8705-3.8016-3.2859-1.6718-0.50089-2.3036-0.35958-11.018 2.4647-20.323 6.5866-21.569 7.0493-22.534 8.3677-2.7257 3.724-0.24057 22.86 4.6337 35.68 0.42183 1.1095 1.4952 1.3824 2.625 0.66739zm8.5869-8.2364c-0.5821-5.1643 3.0846-7.1272 6.2613-3.3519 1.3342 1.5857 1.3976 1.8338 0.65689 2.5745-0.88479 0.88479-0.19398 0.97457 0.93665 0.12173l1.0641-0.80266-0.99098-1.6034c-2.8155-4.5556-7.6912-4.4359-8.9447 0.21946-0.60484 2.2462-0.01708 5.6202 0.88223 5.0644 0.19796-0.12235 0.2585-1.1223 0.13454-2.2221zm-53.924-15.727c7.3302-4.3876 3.8788-16.106-4.729-16.056-8.1353 0.04724-11.774 10.811-5.3195 15.735 2.8877 2.2025 6.7013 2.3243 10.048 0.32078zm-8.1249-1.7978c-3.8422-2.5331-3.9479-8.4316-0.19513-10.888 5.4974-3.5979 12.627 2.9669 9.2458 8.513-1.856 3.044-6.2763 4.2038-9.0507 2.3747zm69.518 2.1323c3.0847-1.0054 4.8641-2.5137 4.8641-4.1233 0-1.3863-1.3272-5.1655-1.814-5.1655-0.21839 0-0.90668-0.80725-1.5295-1.7939-1.9983-3.1654-5.1527-4.3778-7.16-2.7518-1.5183 1.2299-1.8814 2.3778-2.0108 6.3569-0.13842 4.2555 0.77324 6.8691 2.7366 7.8454 1.4636 0.72778 1.5784 0.71918 4.9137-0.36785zm-5.2952-1.5319c-0.93834-1.1929-1.6221-3.4765-1.2306-4.1099 0.43304-0.70067 8.7385-2.9205 9.2001-2.459 0.23958 0.23957 0.55192 1.4203 0.6941 2.6238 0.30704 2.5991-0.21119 3.228-3.5835 4.349-3.0059 0.99918-4.0411 0.91687-5.0801-0.40392zm5.4199-1.8399c0.32153-1.9814-0.31719-2.9-1.8893-2.7172-1.566 0.18204-1.7687 1.8126-0.40417 3.2514 1.4283 1.5061 1.9834 1.3768 2.2935-0.53417zm-6.5061-3.9772c-0.49893-0.49893-0.34462-2.9568 0.26075-4.1532 0.79901-1.5792 2.3511-2.2507 3.93-1.7003 1.2293 0.42855 3.0547 2.4546 3.0547 3.3906 0 0.24789-1.35 0.89628-3 1.4409-1.65 0.54459-3.2104 1.0671-3.4677 1.1612-0.25721 0.09406-0.60721 0.03146-0.77778-0.13911z" fill="#fbfcfd"></path><path d="m59.111 117.15c-7.6018-1.1855-14.755-3.9797-21.385-8.3534-2.8583-1.8857-3.5065-2.5154-3.3321-3.2374 0.11908-0.49298 0.34096-1.4074 0.49307-2.032 0.2645-1.0861 0.12514-1.1818-3.1943-2.1924-3.3674-1.0253-5.1239-2.0993-5.9554-3.6413-0.31913-0.59183 0.6828-0.3812 4.8186 1.013 8.4928 2.863 12.193 2.7953 16.91-0.30924 3.0092-1.9807 4.5514-4.4374 6.4979-10.351 1.778-5.4017 3.5096-12.058 3.2138-12.353-0.11027-0.11027-1.5552-0.48395-3.2111-0.83039-1.6558-0.34644-4.6258-1.4567-6.5999-2.4673-1.9741-1.0106-6.6419-2.8248-10.373-4.0315-8.1171-2.6254-8.6069-3.0555-7.6705-6.7368 0.86293-3.3924 1.3187-4.1793 2.7681-4.7797 1.1761-0.48716 2.0931-0.28608 8.9848 1.9702 8.1966 2.6835 9.3679 3.4061 9.3679 5.7793 0 1.3015 0.18045 1.462 2.6667 2.3714 1.4667 0.53647 3.2917 0.9873 4.0556 1.0018 1.2081 0.02298 1.425-0.15438 1.6667-1.3625 0.41728-2.0864 0.33521-4.6235-0.19494-6.0266-1.111-2.9405-2.1736-3.4889-14.913-7.6969-6.6582-2.1993-12.843-3.9987-13.744-3.9987-2.694 0-4.9571 1.6111-6.8593 4.8832-2.3313 4.0102-5.451 10.357-6.7206 13.672-0.58503 1.5278-1.2147 2.7778-1.3993 2.7778-0.58869 0-0.35679-8.514 0.35073-12.877 3.1177-19.224 16.669-35.123 35.241-41.345 13.596-4.555 29.196-3.0234 41.894 4.1132 10.841 6.0931 19.673 16.676 23.643 28.331 1.026 3.0121 2.5359 9.3886 2.5359 10.709 0 0.28833-1.5923-1.8823-3.5385-4.8237-1.9462-2.9414-4.285-5.9633-5.1973-6.7153-2.0026-1.6507-4.9741-2.7255-7.5351-2.7255-2.2272 0-15.702 4.2492-15.938 5.0259-0.08845 0.29132-0.27199 1.7544-0.40788 3.2513l-0.24707 2.7216 6.6511-2.1562c8.5054-2.7573 8.6203-2.7238 10.24 2.9807 0.91657 3.2273 0.91061 3.2309-12.916 7.7241-13.872 4.5079-13.671 4.492-15.071 1.1991-1.3781-3.2422-1.4488-4.0874-0.44809-5.3596 0.50389-0.64059 1.1618-1.1647 1.462-1.1647 0.68315 0 2.3386-3.3503 2.7567-5.5791 0.26954-1.4368 0.21121-1.6358-0.40958-1.3976-0.39814 0.15278-2.4524 0.81671-4.5651 1.4754-4.4836 1.3979-6.9529 3.1166-8.8226 6.1409-1.2266 1.984-1.3516 2.5571-1.4994 6.8755-0.19563 5.7157 0.85478 15.122 2.3562 21.098 0.60668 2.4151 2.9225 9.9848 5.1463 16.822 2.2238 6.8368 3.9493 12.525 3.8344 12.639-0.53247 0.53247-11.94 0.50912-15.407-0.0315zm2.6667-45.154v-2.2222h-2.1288c-5.127 0-10.519-2.3547-14.494-6.3291-1.9576-1.9576-3.3167-2.8926-5.0934-3.5038-1.3328-0.45856-2.6045-0.83374-2.8259-0.83374-0.91491 0 2.2885 4.8704 4.9803 7.572 4.6398 4.6567 10.884 7.3731 17.228 7.4944l2.3333 0.04463zm17.829-7.4634c3.5841-4.6673 5.2823-9.6263 5.2823-15.426 0-11.455-7.4358-21.097-18.658-24.194-14.326-3.9534-29.387 6.226-31.291 21.149l-0.29205 2.2884 2.0847 0.71033c1.1466 0.39068 2.1243 0.66092 2.1726 0.60052 0.04833-0.0604 0.30407-1.6004 0.56831-3.4223 1.7719-12.217 13.744-20.211 25.631-17.115 7.1642 1.866 13.228 8.0781 14.901 15.266 1.232 5.2931-0.21055 12.549-3.2935 16.564-1.4625 1.9051-1.4691 1.9353-0.82883 3.8143 0.83992 2.465 1.6912 2.4111 3.724-0.23607zm0.8484 49.936c-4.8743-12.82-7.3594-31.956-4.6337-35.68 0.96501-1.3184 2.2109-1.7811 22.534-8.3677 8.7145-2.8243 9.3462-2.9656 11.018-2.4647 1.3865 0.41542 2.216 1.1324 3.8016 3.2859 3.6156 4.9106 4.2752 6.3018 3.937 8.3036-0.16537 0.9788-0.444 1.8682-0.61918 1.9765-0.17517 0.10827-0.988-0.94069-1.8063-2.331-2.443-4.1508-5.3043-8.0082-6.1326-8.2672-1.1172-0.34944-29.535 8.8829-30.221 9.818-0.6841 0.93334-0.71624 5.3853-0.08058 11.161 0.50644 4.6017 1.1581 6.1521 2.7529 6.5495 0.6168 0.1537 6.9807-1.6906 16.76-4.857 8.6711-2.8076 15.812-5.0581 15.869-5.0011 0.23871 0.23872-2.6121 4.7949-3.101 4.956-0.29362 0.09673-6.7866 2.1979-14.429 4.6693-11.558 3.7379-14.015 4.6767-14.609 5.5829-0.77475 1.1824-0.78352 1.1273 1.2217 7.6739 0.8494 2.7731 0.90326 3.3174 0.36217 3.6599-1.1298 0.71499-2.2032 0.4421-2.625-0.66739zm10.517-5.465c-0.59205-1.0049-0.74588-3.3707-0.32163-4.9462 1.2536-4.6554 6.1292-4.775 8.9447-0.21946l0.99098 1.6034-1.0641 0.80266c-1.1306 0.85284-1.8214 0.76306-0.93665-0.12173 0.74068-0.74068 0.67736-0.98887-0.65689-2.5745-3.1767-3.7753-6.8434-1.8124-6.2613 3.3519 0.20346 1.8051-0.18265 2.9738-0.69514 2.104zm-60.054-16.641c-4.6649-1.03-7.5142-5.8717-6.2725-10.659 2.0465-7.8895 12.881-8.8771 16.293-1.485 3.0664 6.6441-2.789 13.74-10.02 12.144zm5.4199-3.0301c4.4015-2.6836 4.2013-8.6451-0.37028-11.028-4.4621-2.3254-9.2991 0.63628-9.2959 5.6918 0.0031 4.9256 5.4277 7.9199 9.6661 5.3357zm57.885 2.5431c-1.9634-0.9763-2.875-3.5899-2.7366-7.8454 0.12943-3.9791 0.49255-5.127 2.0108-6.3569 2.0073-1.626 5.1618-0.41366 7.16 2.7518 0.62283 0.98664 1.3111 1.7939 1.5295 1.7939 0.48684 0 1.814 3.7792 1.814 5.1655 0 1.6095-1.7794 3.1179-4.8641 4.1233-3.3353 1.087-3.4501 1.0956-4.9137 0.36785zm4.6986-1.4958c3.3723-1.121 3.8906-1.7499 3.5835-4.349-0.14218-1.2035-0.45452-2.3842-0.6941-2.6238-0.46156-0.46156-8.7671 1.7583-9.2001 2.459-0.39148 0.63344 0.29227 2.917 1.2306 4.1099 1.0389 1.3208 2.0742 1.4031 5.0801 0.40392zm-1.9536-1.7097c-1.3645-1.4388-1.1618-3.0694 0.40417-3.2514 1.5721-0.18275 2.2109 0.73586 1.8893 2.7172-0.31011 1.911-0.86519 2.0403-2.2935 0.53417zm0.0328-5.5335c1.65-0.54459 3-1.193 3-1.4409 0-0.93594-1.8254-2.962-3.0547-3.3906-2.3637-0.82397-4.4798 1.1409-4.4943 4.173-0.0071 1.4887 0.34875 2.0875 1.0813 1.8196 0.25721-0.09406 1.8177-0.61658 3.4677-1.1612z" fill="#1785c0"></path></svg>